PathFileType	4	(X/Y/Z)	C:/Users/beibeiliu/ov580/test_trc\sequence.35_training_dense_left.trc
DataRate	CameraRate	NumFrames	NumMarkers	Units	OrigDataRate	OrigDataStartFrame	OrigNumFrames
120	120	12	19	mm	120	36	283
Frame#	Time	ThumbCMC			ThumbMCP			ThumbIP			ThumbTip			IndexMCP			IndexPIP			IndexTip			MiddleMCP			MiddlePIP			MiddleTip			RingMCP			RingPIP			RingTip			PinkyMCP			PinkyPIP			PinkyTip			BackHand1			BackHand2			BackHand3	
		X0	Y0	Z0	X1	Y1	Z1	X2	Y2	Z2	X3	Y3	Z3	X4	Y4	Z4	X5	Y5	Z5	X6	Y6	Z6	X7	Y7	Z7	X8	Y8	Z8	X9	Y9	Z9	X10	Y10	Z10	X11	Y11	Z11	X12	Y12	Z12	X13	Y13	Z13	X14	Y14	Z14	X15	Y15	Z15	X16	Y16	Z16	X17	Y17	Z17	X18	Y18	Z18	
35	0.291667	-146.894	29.4331	72.5841	-129.114	26.513	49.182	-121.979	25.0283	30.9505	-112.995	22.8233	11.6922	-151.96	46.2098	4.92904	-145.018	42.529	-22.0151	-143.199	35.8029	-39.8335	-178.37	41.7707	-5.85374	-173.058	40.16	-29.2934	-170.699	36.5557	-53.9739	-196.375	33.4854	1.94689	-194.129	33.305	-22.9203	-191.905	28.8798	-41.6833	-214.063	22.439	11.5192	-216.023	20.625	-7.86584	-220.354	18.0476	-22.8154	-197.752	39.6028	44.5684	-199.815	38.647	72.3073	-175.106	44.5684	60.7166	
36	0.3	-147.51	29.8268	74.9763	-131.737	25.3675	51.9223	-122.867	23.8911	33.9317	-108.278	22.9416	15.5705	-157.39	44.8795	7.18456	-152.584	43.6067	-14.6175	-148.031	35.9248	-37.5199	-178.36	42.1499	0.594648	-174.37	41.6327	-22.5652	-176.964	35.5866	-48.4217	-197.104	32.5448	7.51473	-195.591	32.0441	-15.0306	-191.992	28.0144	-41.886	-212.352	21.2358	14.2725	-214.28	19.5361	-3.49178	-221.236	16.2371	-22.5456	-200.906	36.122	51.2365	-200.217	37.8917	74.9336	-176.733	44.33	63.6899	
37	0.308333	-149.727	29.6362	75.2655	-132.075	25.7383	53.1533	-123.034	23.304	36.9504	-109.451	22.6127	18.991	-157.668	46.6298	6.81411	-152.047	45.103	-14.7902	-144.569	37.9337	-35.7728	-181.174	41.7316	5.36405	-178.309	41.609	-20.705	-178.656	35.5285	-45.4878	-199.21	32.46	10.1589	-194.658	33.1622	-16.4058	-196.61	27.2924	-39.7555	-214.515	20.3189	23.0882	-217.85	18.012	2.01334	-218.333	19.6119	-16.077	-197.046	36.9864	56.693	-203.835	35.9682	79.3362	-173.911	46.6563	65.7829	
38	0.316667	-151.659	30.3864	77.7753	-129.321	25.0701	58.1779	-119.946	24.6785	37.7248	-113.959	21.0556	21.2654	-157.203	48.8139	14.5366	-148.689	48.3434	-11.5236	-147.291	40.7126	-33.7881	-176.887	45.7714	7.8634	-178.228	43.9394	-19.298	-178.193	36.9983	-46.9179	-195.731	35.5875	10.6064	-196.122	34.6159	-12.5253	-195.213	29.9518	-33.8791	-212.898	21.7204	21.4264	-218.64	18.9432	4.049	-222.472	17.714	-18.8044	-199.985	35.5396	57.7384	-198.558	37.3965	81.5137	-174.227	48.331	69.6673	
39	0.325	-151.512	31.4038	79.2801	-133.714	25.4187	60.3544	-120.579	25.9225	36.37	-111.842	23.7067	15.5254	-156.438	52.1269	11.7314	-150.91	52.2526	-7.16768	-144.754	44.0214	-33.0768	-181.067	47.7916	6.00394	-178.3	46.2752	-19.5152	-178.738	40.4046	-41.4223	-194.631	38.4058	13.2147	-196.444	36.6471	-11.8881	-196.855	32.2329	-35.0536	-214.028	24.1298	21.3235	-217.48	21.7889	3.32589	-219.574	18.7097	-17.6289	-196.978	40.7458	59.4835	-200.303	37.102	82.9322	-172.764	48.4282	73.5255	
40	0.333333	-144.741	35.1298	79.2514	-130.517	30.1291	57.9949	-119.147	30.4254	37.4236	-110.486	27.3917	17.4251	-157.291	57.0136	12.7675	-149.632	55.8317	-8.51494	-146.904	48.5142	-30.6783	-179.71	51.6943	7.82525	-177.877	51.6391	-16.523	-172.492	45.9737	-42.5286	-197.25	41.4261	13.7354	-196.187	42.4816	-9.68071	-192.598	37.722	-34.5556	-210.955	29.0098	25.1448	-217.624	25.5515	5.7173	-217.931	26.5762	-15.3792	-199.987	42.2835	56.7423	-198.886	40.0297	84.3704	-175.384	51.6573	73.4312	
41	0.341667	-144.019	39.4585	79.6297	-130.498	31.7751	60.4428	-116.469	33.4003	34.8999	-112.505	31.2646	15.4655	-154.079	60.9082	16.0926	-149.078	61.6432	-6.21482	-145.875	53.4121	-29.5192	-179.195	56.8427	6.82687	-176.4	57.4877	-17.5644	-176.853	49.7596	-43.4622	-197.503	45.7642	14.3562	-193.359	47.6436	-9.6764	-190.208	43.7053	-32.6397	-213.87	31.4963	23.5997	-216	30.5914	3.5731	-219.535	28.6572	-18.515	-196.673	45.7951	58.1397	-194.913	43.3934	83.8084	-171.844	54.4995	74.6035	
42	0.35	-144.702	42.0137	74.7021	-124.744	37.3685	57.7015	-119.697	36.746	32.2539	-112.33	34.0135	15.7076	-150.709	67.2669	15.8912	-146.045	66.2263	-11.2593	-139.961	58.1497	-35.072	-176.604	62.0802	4.2452	-176.269	62.2651	-19.9828	-169.922	56.3248	-47.6239	-195.143	49.9004	12.4942	-196.334	50.6375	-13.8255	-190.163	48.814	-34.7808	-211.649	35.7539	21.6811	-213.764	36.4373	1.30865	-215.595	36.3735	-18.4861	-194.762	49.3755	58.9912	-195.167	45.4103	83.0544	-171.765	57.4009	72.7218	
43	0.358333	-141.95	45.7845	73.7109	-127.163	40.6344	52.9185	-116.228	40.1412	34.2474	-107.05	38.5024	10.8559	-153.316	71.4237	10.5557	-143.476	74.1227	-9.91183	-139.415	67.3682	-33.3201	-176.112	66.0328	5.63981	-170.704	69.9988	-23.3921	-169.662	62.6891	-46.9903	-192.102	57.1725	7.0249	-192.84	58.2439	-13.3196	-191.081	53.9907	-38.0206	-207.2	43.7107	16.6101	-211.87	42.4116	-0.750713	-213.534	43.0705	-18.7371	-191.885	55.1446	53.4777	-196.903	48.7834	79.9168	-168.636	61.6306	70.9237	
44	0.366667	-143.849	47.9049	70.7976	-121.625	43.7304	49.7275	-109.955	46.197	26.3015	-106.438	43.8792	8.58509	-148.244	76.3493	9.73414	-143.115	79.3191	-13.2701	-137.465	71.4854	-39.3253	-170.747	72.6165	3.83584	-171.186	74.9381	-22.5545	-166.344	69.6112	-50.9553	-191.292	62.7831	2.93746	-190.929	64.5246	-16.6885	-188.5	59.7088	-41.8479	-204.512	47.7833	17.1057	-210.454	47.9729	-6.9708	-208.703	49.5193	-27.718	-190.257	57.9005	51.5492	-189.592	54.3958	75.7291	-165.622	68.1355	64.3824	
45	0.375	-139.393	51.8396	63.5427	-120.29	47.2989	41.787	-111.983	46.3613	24.0595	-102.187	45.5672	7.81534	-145.358	81.6898	4.31005	-138.178	83.3183	-20.4222	-132.955	76.3711	-43.3021	-168.925	78.6073	-4.38047	-170.212	78.7079	-32.305	-165.688	74.3926	-55.4103	-185.441	69.256	1.03485	-187.212	69.9374	-21.2879	-184.437	64.9066	-48.6487	-204.831	53.856	7.90785	-209.456	52.5008	-10.0545	-208.825	54.5245	-28.904	-191.73	61.0609	46.7098	-188.531	58.8322	73.119	-164.764	69.6459	61.1999	
46	0.383333	-136.278	57.8865	54.63	-116.842	50.339	36.854	-108.949	50.2374	16.9936	-102.617	48.5629	-4.60616	-144.372	86.0741	-1.35128	-139.756	88.7905	-24.997	-135.334	80.1921	-50.1333	-166.701	84.0916	-10.4726	-166.02	84.9256	-39.6633	-164.368	76.78	-62.2742	-190.059	70.7153	-4.85427	-185.998	74.9273	-29.2523	-186.103	68.6403	-52.169	-204.338	57.5097	0.745349	-205.807	58.2416	-13.9402	-206.576	55.7079	-34.9175	-186.776	67.0483	38.4975	-188.406	60.2997	65.3353	-162.485	73.5241	53.4901	
